# xmcd CD database file
#
# Track frame offsets:
#	150
#	24033
#	45708
#	68595
#	96135
#	120228
#	151971
#	174662
#	201986
#	230875
#	256430
#	283995
#	314763
#
# Disc length: 4565 seconds
#
# Revision: 0
# Processed by: cddbd v1.5.2PL0 Copyright (c) Steve Scherf et al.
# Submitted via: CDex 1.79
#
DISCID=b611d30d
DTITLE=Paul Meader and Robin Nolan - The Gypsy Jazz Play Along CD - Volume 3
DYEAR=2004
DGENRE=Jazz
TTITLE0=Troublant bolero
TTITLE1=Caravan
TTITLE2=Bar Del Pi
TTITLE3=Manha de Carnaval
TTITLE4=Ester Tango
TTITLE5=Bossa Dorado (slow)
TTITLE6=Bossa Dorado (fast)
TTITLE7=Number 1.
TTITLE8=For Sephora (Slow)
TTITLE9=For Sephora (Medium)
TTITLE10=Mediterranean Blues (medium)
TTITLE11=Mediterranean Blues (fast)
TTITLE12=Summertime
EXTD=YEAR: 2004
EXTT0=
EXTT1=
EXTT2=
EXTT3=
EXTT4=
EXTT5=
EXTT6=
EXTT7=
EXTT8=
EXTT9=
EXTT10=
EXTT11=
EXTT12=
PLAYORDER=
